<?xml version="1.0" encoding="UTF-8"?>
<svg id="Calque_1" data-name="Calque 1" xmlns="http://www.w3.org/2000/svg" viewBox="0 0 617.81 425.99">
  <defs>
    <style>
      .cls-1 {
        stroke-width: 1.5px;
      }

      .cls-1, .cls-2, .cls-3, .cls-4, .cls-5, .cls-6 {
        stroke-miterlimit: 10;
      }

      .cls-1, .cls-2, .cls-3, .cls-4, .cls-6 {
        stroke: #fff;
      }

      .cls-1, .cls-2, .cls-6 {
        fill: none;
      }

      .cls-1, .cls-5, .cls-6 {
        stroke-linecap: round;
      }

      .cls-2 {
        stroke-width: 2.5px;
      }

      .cls-3 {
        stroke-width: 2.76px;
      }

      .cls-3, .cls-4 {
        fill: #010102;
      }

      .cls-4 {
        stroke-width: 2.97px;
      }

      .cls-5 {
        stroke: #1d1d1b;
        stroke-width: 1.74px;
      }

      .cls-6 {
        stroke-width: 2px;
      }
    </style>
  </defs>
  <ellipse class="cls-5" cx="316.05" cy="166.39" rx="137.28" ry="138.06"/>
  <path class="cls-6" d="M261.95,293.45c-49.08-20.97-83.47-69.68-83.47-126.43,0-75.89,61.53-137.42,137.43-137.42s137.42,61.53,137.42,137.42c0,55.4-32.78,103.14-79.99,124.88"/>
  <path class="cls-6" d="M275.23,298.33c12.86,3.98,26.52,6.12,40.68,6.12s29.04-2.34,42.39-6.67"/>
  <path class="cls-1" d="M263.07,255.26c-29.96-17.97-50-50.76-50-88.24,0-56.79,46.04-102.83,102.84-102.83s102.83,46.04,102.83,102.83c0,36.21-18.71,68.04-46.98,86.36"/>
  <path class="cls-1" d="M273.84,260.89c12.84,5.76,27.08,8.97,42.07,8.97s30.54-3.51,43.83-9.79"/>
  <g>
    <path class="cls-2" d="M293.33,132.31s-24.97,22.19-49.3-.16"/>
    <line class="cls-2" x1="249.56" y1="137.14" x2="240.41" y2="147.5"/>
    <line class="cls-2" x1="268.68" y1="142.8" x2="268.68" y2="152.94"/>
    <line class="cls-2" x1="289.27" y1="136.61" x2="296.08" y2="144.9"/>
  </g>
  <g>
    <path class="cls-2" d="M388.07,132.31s-24.97,22.19-49.3-.16"/>
    <line class="cls-2" x1="363.42" y1="142.8" x2="363.42" y2="152.94"/>
    <line class="cls-2" x1="343.45" y1="137.14" x2="335.04" y2="146.26"/>
    <line class="cls-2" x1="381.93" y1="137.14" x2="391.33" y2="147.87"/>
  </g>
  <path class="cls-4" d="M364.06,169.28c6.46-1.22,11.96,4.89,14.98,11.74,5.63,12.77,5.27,31.92-1.69,43.77-2.98,5.06-6.01,6.71-6.18,14.36l3.1,75.23c-1.09,13.39-14.86,14.23-16.64.96l2.91-76.06c-.94-11.01-7.72-14.23-10.31-25.22-3.39-14.39.07-42.16,13.83-44.76Z"/>
  <path class="cls-3" d="M271.5,213.1c1.32,1.99,3.94,1.04,4.35-1.71l.09-32.49c.38-3.93,4.48-3.9,4.81.02-.18,13.38,5.5,35.86-.03,47.33-2.95,6.12-7.38,7.45-7.55,16.94l2.67,71.97c-.97,13.28-14.38,12.69-14.87-.37-.26-6.97.83-16.44,1.06-23.69.39-12.05.74-24.04,1.03-36.1.17-7.01,1.53-14.83-1.59-20.98-.87-1.72-2.3-2.82-3.15-4.16-9.01-14.13-2.06-34.31-2.12-51.36.69-3.7,4.33-3.37,4.75.4l.09,32.49c.83,3.38,3.15,3.69,4.61.84l.21-32.82c.37-4.72,4.66-4.81,5.14,0,.93,9.28-.56,21.45.02,31.12.05.81.05,1.96.45,2.57Z"/>
</svg>